# xmcd
#
# Track frame offsets:
#	187
#	14255
#	26967
#	37440
#	50125
#	62870
#	78917
#	92522
#	109705
#	126240
#	140970
#	156087
#	173290
#	192950
#	212692
#	229565
#	244945
#
# Disc length: 3491 seconds
#
# Revision: 0
# Processed by: cddbd v1.5.2PL0 Copyright (c) Steve Scherf et al.
# Submitted via: EasyCDDAExtractor 16.1.0.1
#
DISCID=ef0da111
DTITLE=Gladys Knight and The Pips - 17 Greatest Hits
DYEAR=1984
DGENRE=R&B
TTITLE0=Everybody Needs Love
TTITLE1=I Heard It Through The Grapevine
TTITLE2=The End Of Our Road
TTITLE3=It Should Have Been Me
TTITLE4=I Wish It Would Rain
TTITLE5=Didn't You Know (You'd Have To Cry Some Time)
TTITLE6=The Nitty Gritty
TTITLE7=Friendship Train
TTITLE8=You Need Love Like I Do (Don't You?)
TTITLE9=If I Were Your Woman
TTITLE10=I Don't Want To Do Wrong
TTITLE11=Make Me The Woman That You Go Home To
TTITLE12=Help Me Make It Through The Night
TTITLE13=Neither One Of Us (Wants To Be The First To Say Goodbye)
TTITLE14=Daddy Could Never Swear, I Declare
TTITLE15=All I Need Is Time
TTITLE16=Between Her Goodbye And My Hello
EXTD=
EXTT0=
EXTT1=
EXTT2=
EXTT3=
EXTT4=
EXTT5=
EXTT6=
EXTT7=
EXTT8=
EXTT9=
EXTT10=
EXTT11=
EXTT12=
EXTT13=
EXTT14=
EXTT15=
EXTT16=
PLAYORDER=
